HIERARCHY
ROOT Hips
{
    OFFSET 0.000000 0.000000 0.000000
    CHANNELS 6 Xposition Yposition Zposition Zrotation Xrotation Yrotation
    JOINT Spine
    {
        OFFSET -0.000000 0.081015 0.000000
        CHANNELS 3 Zrotation Xrotation Yrotation
        JOINT Spine1
        {
            OFFSET -0.000000 0.240812 0.000000
            CHANNELS 3 Zrotation Xrotation Yrotation
            JOINT Neck
            {
                OFFSET -0.000000 0.239823 0.021802
                CHANNELS 3 Zrotation Xrotation Yrotation
                JOINT Head
                {
                    OFFSET -0.000000 0.148909 -0.021273
                    CHANNELS 3 Zrotation Xrotation Yrotation
                    End Site
                    {
                        OFFSET -0.000000 0.197598 0.000000
                    }
                }
            }
            JOINT LeftShoulder
            {
                OFFSET 0.039829 0.224972 -0.001181
                CHANNELS 3 Zrotation Xrotation Yrotation
                JOINT LeftArm
                {
                    OFFSET 0.107364 0.000000 0.000000
                    CHANNELS 3 Zrotation Xrotation Yrotation
                    JOINT LeftForeArm
                    {
                        OFFSET 0.283104 0.000000 0.000000
                        CHANNELS 3 Zrotation Xrotation Yrotation
                        JOINT LeftHand
                        {
                            OFFSET 0.324767 0.000000 0.000000
                            CHANNELS 3 Zrotation Xrotation Yrotation
                            End Site
                            {
                                OFFSET 0.148198 0.000000 0.000000
                            }
                        }
                    }
                }
            }
            JOINT RightShoulder
            {
                OFFSET -0.039119 0.224972 -0.001181
                CHANNELS 3 Zrotation Xrotation Yrotation
                JOINT RightArm
                {
                    OFFSET -0.107364 0.000000 0.000000
                    CHANNELS 3 Zrotation Xrotation Yrotation
                    JOINT RightForeArm
                    {
                        OFFSET -0.283104 0.000000 0.000000
                        CHANNELS 3 Zrotation Xrotation Yrotation
                        JOINT RightHand
                        {
                            OFFSET -0.324767 0.000000 0.000000
                            CHANNELS 3 Zrotation Xrotation Yrotation
                            End Site
                            {
                                OFFSET -0.148198 0.000000 0.000000
                            }
                        }
                    }
                }
            }
        }
    }
    JOINT LeftUpLeg
    {
        OFFSET 0.098799 0.000000 0.000000
        CHANNELS 3 Zrotation Xrotation Yrotation
        JOINT LeftLeg
        {
            OFFSET -0.000000 -0.332632 0.000000
            CHANNELS 3 Zrotation Xrotation Yrotation
            JOINT LeftFoot
            {
                OFFSET -0.000000 -0.498967 0.000000
                CHANNELS 3 Zrotation Xrotation Yrotation
                JOINT LeftToeBase
                {
                    OFFSET -0.000000 -0.064219 0.148198
                    CHANNELS 3 Zrotation Xrotation Yrotation
                    End Site
                    {
                        OFFSET -0.000000 0.000000 0.039520
                    }
                }
            }
        }
    }
    JOINT RightUpLeg
    {
        OFFSET -0.098799 0.000000 0.000000
        CHANNELS 3 Zrotation Xrotation Yrotation
        JOINT RightLeg
        {
            OFFSET -0.000000 -0.332632 0.000000
            CHANNELS 3 Zrotation Xrotation Yrotation
            JOINT RightFoot
            {
                OFFSET -0.000000 -0.498967 0.000000
                CHANNELS 3 Zrotation Xrotation Yrotation
                JOINT RightToeBase
                {
                    OFFSET -0.000000 -0.064219 0.148198
                    CHANNELS 3 Zrotation Xrotation Yrotation
                    End Site
                    {
                        OFFSET -0.000000 0.000000 0.039520
                    }
                }
            }
        }
    }
}
MOTION
Frames:    12
Frame Time:    0.010000
-0.203619    0.771302    1.006860    -6.779918    -8.027915    -41.450779    -2.417676    10.811013    0.448862    2.057447    11.919939    -0.135513    -5.406721    43.029995    10.833241    -16.290956    -9.810244    6.096605    -18.771988    24.861202    -0.642376    -46.946724    -2.992177    -23.414989    62.057583    -48.571960    -73.977196    53.181736    3.222106    5.890901    9.308564    23.733566    5.806958    28.960800    31.937063    37.067120    -109.924149    -32.371002    4.032927    -28.444969    -27.180368    -0.886706    24.787903    -26.538538    21.659485    -16.644758    60.619755    24.213968    0.000000    0.000000    0.000000    0.000000    0.000000    0.000000    -16.821665    -17.717503    -16.624313    -1.812742    62.731991    -1.091457    14.852975    -29.795507    7.280022    0.000000    0.000000    0.000000    
-0.204015    0.769540    1.007306    -6.811200    -8.151653    -41.413582    -2.406783    10.743119    0.579856    2.026181    12.215750    -0.093818    -5.340626    42.915653    10.719105    -16.334890    -9.741373    6.002257    -19.019135    24.916080    -0.589966    -47.144657    -2.821474    -23.115593    62.416721    -47.403461    -73.892380    54.789135    3.057258    1.307321    9.388687    23.967093    5.863855    28.644888    32.025101    37.594940    -109.886925    -31.999792    4.050737    -27.720861    -26.868242    -0.466028    24.880079    -26.654924    21.792850    -16.693361    61.039158    24.566792    0.000000    0.000000    0.000000    0.000000    0.000000    0.000000    -17.133621    -17.802563    -16.829992    -1.847922    63.091297    -2.569881    14.767919    -29.083372    9.641161    0.000000    0.000000    0.000000    
-0.204418    0.767927    1.007694    -6.823450    -8.269180    -41.395561    -2.399018    10.677879    0.733784    1.968181    12.511428    -0.040868    -5.250194    42.830566    10.488625    -16.179083    -9.788371    5.820475    -19.199442    25.039398    -0.518077    -46.964951    -2.653327    -23.751518    62.299873    -48.696758    -73.570267    53.268585    2.979069    6.110609    9.488238    24.197882    5.819537    28.515615    31.926146    38.083046    -109.757584    -32.491184    4.346368    -27.843355    -27.020161    -0.473566    24.945818    -26.763479    21.868135    -16.787298    61.398479    25.074001    0.000000    0.000000    0.000000    0.000000    0.000000    0.000000    -17.216257    -17.868458    -16.988163    -2.309470    63.594013    -0.595219    15.075539    -30.223955    7.628804    0.000000    0.000000    0.000000    
-0.204838    0.766527    1.008028    -6.837101    -8.344130    -41.382133    -2.406091    10.589318    0.863673    1.979294    12.770411    -0.002917    -5.211550    42.770889    10.343703    -16.127872    -9.802884    5.692846    -19.488840    25.200174    -0.440376    -47.210190    -2.488874    -23.472006    62.669491    -47.553371    -73.482841    54.823772    2.657637    1.276535    9.575715    24.512247    5.815990    28.259911    32.022964    38.581604    -109.842255    -32.672031    4.346217    -27.095978    -27.377203    0.327832    25.017427    -26.869516    21.921379    -16.856590    61.688786    25.564692    0.000000    0.000000    0.000000    0.000000    0.000000    0.000000    -17.470257    -17.897570    -17.172703    -2.324121    63.880054    -2.181306    16.119492    -29.895180    9.892678    0.000000    0.000000    0.000000    
-0.205389    0.765266    1.008330    -6.917820    -8.444082    -41.383099    -2.423766    10.590620    0.999578    2.062162    12.989261    0.028390    -5.199467    42.726658    10.200721    -16.091175    -9.830935    5.553814    -19.806353    25.294039    -0.352274    -47.224491    -2.230121    -23.595081    62.926041    -47.627453    -73.141670    54.987461    2.498824    1.326882    9.657992    24.768032    5.785724    28.041382    32.088612    39.038387    -109.777374    -32.791191    4.473025    -27.106050    -27.365946    0.408260    25.126118    -26.896111    21.918392    -17.001030    61.958679    26.164309    0.000000    0.000000    0.000000    0.000000    0.000000    0.000000    -17.448511    -17.823708    -17.032877    -1.810048    64.193504    -2.740327    17.617952    -31.089214    7.644788    0.000000    0.000000    0.000000    
-0.205837    0.764354    1.008575    -6.933093    -8.482682    -41.418972    -2.405544    10.498870    1.164019    2.032548    13.207844    0.083755    -5.105503    42.650089    10.057179    -16.038687    -9.792418    5.451305    -20.017427    25.485401    -0.308673    -47.429588    -2.020258    -23.623709    62.646950    -47.860859    -73.255318    55.017487    1.279640    0.077476    9.821635    24.861534    5.781312    27.955439    32.129967    39.251671    -109.509445    -32.322578    4.794810    -27.045961    -26.356075    -0.215293    25.199905    -26.951925    21.918667    -17.146383    62.139309    26.779888    0.000000    0.000000    0.000000    0.000000    0.000000    0.000000    -17.600388    -17.920294    -17.092001    -2.174703    64.369606    -2.460544    16.267385    -30.175930    10.239526    0.000000    0.000000    0.000000    
-0.206306    0.763681    1.008821    -6.972092    -8.514019    -41.463867    -2.404134    10.441455    1.298024    2.063761    13.386662    0.121932    -5.039837    42.587044    9.932329    -16.024076    -9.778506    5.347693    -20.233597    25.658754    -0.238694    -47.506081    -1.722499    -23.752995    63.186134    -47.965725    -72.690559    55.030540    1.279834    0.345682    9.929462    25.095175    5.787460    27.998816    32.109444    39.446903    -109.444214    -33.094471    5.120959    -26.729553    -26.938122    0.578232    25.274420    -26.957474    21.914688    -17.225233    62.264645    27.334736    0.000000    0.000000    0.000000    0.000000    0.000000    0.000000    -17.528357    -17.898420    -17.145763    -2.118298    64.570824    -2.526449    17.777004    -31.263657    7.947283    0.000000    0.000000    0.000000    
-0.206782    0.763257    1.009048    -7.005021    -8.546567    -41.527321    -2.439120    10.394629    1.432238    2.132026    13.539402    0.155080    -5.029425    42.523647    9.843124    -15.948655    -9.752110    5.281742    -20.501461    25.813654    -0.160019    -47.601776    -1.434695    -23.860880    63.709976    -48.072502    -72.152466    55.004097    1.229519    0.509481    10.025821    25.333260    5.760868    27.775211    32.148582    39.766258    -109.212151    -32.648952    5.325639    -26.920036    -26.089825    -0.089354    25.322668    -26.918720    21.875931    -17.337530    62.319527    27.892704    0.000000    0.000000    0.000000    0.000000    0.000000    0.000000    -17.612091    -17.925919    -17.123297    -2.419190    64.616211    -2.250705    16.384451    -30.325964    10.443276    0.000000    0.000000    0.000000    
-0.207262    0.763100    1.009216    -7.039352    -8.539468    -41.604099    -2.447270    10.337029    1.557559    2.181776    13.654744    0.188898    -4.996363    42.470745    9.755800    -15.876895    -9.713510    5.224089    -20.718966    26.012087    -0.061437    -47.800285    -1.411153    -23.982244    63.742977    -48.075745    -72.165146    54.955791    1.334998    0.612373    10.111529    25.539074    5.745074    27.700487    32.267754    39.959301    -109.109444    -32.689625    5.448143    -26.624956    -26.032116    0.105835    25.390020    -26.873999    21.828119    -17.448114    62.320717    28.444315    0.000000    0.000000    0.000000    0.000000    0.000000    0.000000    -17.478645    -17.882298    -17.062782    -2.162088    64.694359    -2.475998    17.813852    -31.355896    8.047249    0.000000    0.000000    0.000000    
-0.207685    0.763229    1.009339    -7.056421    -8.499269    -41.668213    -2.449328    10.255545    1.657612    2.233970    13.768330    0.214232    -5.034844    42.404129    9.748060    -15.790546    -9.755928    5.223353    -20.933626    26.187353    0.050729    -47.922256    -1.111067    -24.084301    64.280930    -48.197895    -71.635498    54.882576    1.266809    0.743906    10.204894    25.738182    5.701181    27.593601    32.344070    40.103733    -108.959953    -32.935783    5.698717    -26.641924    -26.002779    0.134569    25.420963    -26.841652    21.780796    -17.453478    62.266617    28.856258    0.000000    0.000000    0.000000    0.000000    0.000000    0.000000    -17.411037    -17.873699    -16.995459    -2.100422    64.655884    -2.558980    17.795189    -31.314226    8.100049    0.000000    0.000000    0.000000    
-0.208127    0.763604    1.009504    -7.089067    -8.476301    -41.744621    -2.449526    10.203345    1.744586    2.272789    13.854815    0.237253    -4.981033    42.349537    9.677831    -15.753283    -9.705615    5.182887    -21.120979    26.373108    0.166896    -48.072247    -0.910552    -24.181101    64.647995    -48.280251    -71.294792    54.837303    1.263929    0.873251    10.278194    25.898441    5.672286    27.516720    32.463890    40.191833    -108.846947    -33.048832    5.844580    -26.725628    -25.958118    0.152075    25.411146    -26.752077    21.739189    -17.327316    62.170334    29.198162    0.000000    0.000000    0.000000    0.000000    0.000000    0.000000    -17.325232    -17.807173    -16.913986    -2.042718    64.555756    -2.604086    17.805706    -31.286943    8.090129    0.000000    0.000000    0.000000    
-0.208536    0.764232    1.009640    -7.111332    -8.434719    -41.824608    -2.467046    10.141352    1.829449    2.371750    13.918720    0.252044    -5.040507    42.306915    9.664584    -15.642901    -9.660073    5.186546    -21.333754    26.524965    0.254222    -48.195770    -0.697186    -24.220846    65.085983    -48.350403    -70.858665    54.764904    1.235628    0.973155    10.284065    26.184647    5.582780    27.554762    32.463783    40.297955    -108.789688    -33.758739    6.054033    -26.008799    -26.676060    1.181695    25.369457    -26.657526    21.752283    -17.013416    62.036877    29.331120    0.000000    0.000000    0.000000    0.000000    0.000000    0.000000    -17.220768    -17.729118    -16.860701    -2.036183    64.388191    -2.560488    17.760353    -31.243181    7.996697    0.000000    0.000000    0.000000    
